<svg width="128" height="128" viewBox="0 0 128 128" fill="none" xmlns="http://www.w3.org/2000/svg">
<path d="M128 64C128 80.9739 121.257 97.2525 109.255 109.255C97.2525 121.257 80.9739 128 64 128C47.0261 128 30.7475 121.257 18.7452 109.255C6.74284 97.2525 0 80.9739 0 64C0 47.0261 6.74284 30.7475 18.7452 18.7452C30.7475 6.74284 47.0261 0 64 0C80.9739 0 97.2525 6.74284 109.255 18.7452C121.257 30.7475 128 47.0261 128 64ZM42.832 37.168C42.0809 36.4169 41.0622 35.9949 40 35.9949C38.9378 35.9949 37.9191 36.4169 37.168 37.168C36.4169 37.9191 35.9949 38.9378 35.9949 40C35.9949 41.0622 36.4169 42.0809 37.168 42.832L58.344 64L37.168 85.168C36.7961 85.5399 36.5011 85.9814 36.2998 86.4673C36.0985 86.9532 35.9949 87.474 35.9949 88C35.9949 88.526 36.0985 89.0468 36.2998 89.5327C36.5011 90.0186 36.7961 90.4601 37.168 90.832C37.9191 91.5831 38.9378 92.0051 40 92.0051C40.526 92.0051 41.0468 91.9015 41.5327 91.7002C42.0186 91.4989 42.4601 91.2039 42.832 90.832L64 69.656L85.168 90.832C85.5399 91.2039 85.9814 91.4989 86.4673 91.7002C86.9532 91.9015 87.474 92.0051 88 92.0051C88.526 92.0051 89.0468 91.9015 89.5327 91.7002C90.0186 91.4989 90.4601 91.2039 90.832 90.832C91.2039 90.4601 91.4989 90.0186 91.7002 89.5327C91.9015 89.0468 92.0051 88.526 92.0051 88C92.0051 87.474 91.9015 86.9532 91.7002 86.4673C91.4989 85.9814 91.2039 85.5399 90.832 85.168L69.656 64L90.832 42.832C91.2039 42.4601 91.4989 42.0186 91.7002 41.5327C91.9015 41.0468 92.0051 40.526 92.0051 40C92.0051 39.474 91.9015 38.9532 91.7002 38.4673C91.4989 37.9814 91.2039 37.5399 90.832 37.168C90.4601 36.7961 90.0186 36.5011 89.5327 36.2998C89.0468 36.0985 88.526 35.9949 88 35.9949C87.474 35.9949 86.9532 36.0985 86.4673 36.2998C85.9814 36.5011 85.5399 36.7961 85.168 37.168L64 58.344L42.832 37.168Z" fill="#FF0000"/>
</svg>
